<svg width="30" height="19" viewBox="0 0 30 19" fill="none" xmlns="http://www.w3.org/2000/svg">
<g filter="url(#filter0_d_107_791)">
<path d="M8.16406 12.9883H20.6406C21.3073 12.9883 21.9167 12.9336 22.4688 12.8242C23.0208 12.7148 23.4948 12.4622 23.8906 12.0664C24.2917 11.6654 24.5443 11.1914 24.6484 10.6445C24.7526 10.0977 24.8047 9.48828 24.8047 8.81641V6.17578C24.8047 5.50911 24.7526 4.90234 24.6484 4.35547C24.5443 3.80859 24.2917 3.33464 23.8906 2.93359C23.4896 2.53776 23.013 2.28516 22.4609 2.17578C21.9141 2.06641 21.3073 2.01172 20.6406 2.01172H8.14844C7.49219 2.01172 6.88802 2.06641 6.33594 2.17578C5.78906 2.28516 5.3151 2.54036 4.91406 2.94141C4.51823 3.33724 4.26562 3.80859 4.15625 4.35547C4.05208 4.90234 4 5.50391 4 6.16016V8.81641C4 9.48828 4.05208 10.0977 4.15625 10.6445C4.26042 11.1914 4.51302 11.6654 4.91406 12.0664C5.3151 12.4622 5.78906 12.7148 6.33594 12.8242C6.88802 12.9336 7.4974 12.9883 8.16406 12.9883ZM7.95312 11.7305C7.55208 11.7305 7.15625 11.6914 6.76562 11.6133C6.38021 11.5352 6.06771 11.3789 5.82812 11.1445C5.59375 10.9102 5.4401 10.6003 5.36719 10.2148C5.29427 9.82943 5.25781 9.4362 5.25781 9.03516V5.98828C5.25781 5.57682 5.29427 5.17839 5.36719 4.79297C5.4401 4.40234 5.59375 4.08724 5.82812 3.84766C6.0625 3.61328 6.375 3.45964 6.76562 3.38672C7.16146 3.30859 7.5651 3.26953 7.97656 3.26953H20.8516C21.2526 3.26953 21.6458 3.30859 22.0312 3.38672C22.4219 3.45964 22.737 3.61589 22.9766 3.85547C23.2109 4.08984 23.3646 4.39974 23.4375 4.78516C23.5104 5.17057 23.5469 5.5638 23.5469 5.96484V9.03516C23.5469 9.4362 23.5104 9.82943 23.4375 10.2148C23.3646 10.6003 23.2109 10.9102 22.9766 11.1445C22.737 11.3841 22.4219 11.543 22.0312 11.6211C21.6458 11.694 21.2526 11.7305 20.8516 11.7305H7.95312ZM24.5469 9.51953C24.7552 9.50391 24.9714 9.41276 25.1953 9.24609C25.4193 9.07422 25.6094 8.83984 25.7656 8.54297C25.9219 8.24609 26 7.89714 26 7.49609C26 7.10026 25.9219 6.75391 25.7656 6.45703C25.6094 6.16016 25.4193 5.92578 25.1953 5.75391C24.9714 5.58203 24.7552 5.49089 24.5469 5.48047V9.51953ZM7.64062 10.7383H21.1719C21.4427 10.7383 21.6615 10.7174 21.8281 10.6758C21.9948 10.6341 22.138 10.556 22.2578 10.4414C22.3724 10.3268 22.4505 10.1862 22.4922 10.0195C22.5391 9.84766 22.5625 9.6263 22.5625 9.35547V5.64453C22.5625 5.3737 22.5391 5.15495 22.4922 4.98828C22.4505 4.81641 22.3724 4.67318 22.2578 4.55859C22.138 4.4388 21.9948 4.36068 21.8281 4.32422C21.6615 4.28255 21.4427 4.26172 21.1719 4.26172H7.64062C7.36458 4.26172 7.14323 4.28255 6.97656 4.32422C6.8099 4.36068 6.66927 4.4388 6.55469 4.55859C6.4401 4.67318 6.35938 4.81641 6.3125 4.98828C6.27083 5.15495 6.25 5.3737 6.25 5.64453V9.35547C6.25 9.6263 6.27083 9.84766 6.3125 10.0195C6.35938 10.1862 6.4401 10.3268 6.55469 10.4414C6.67448 10.556 6.8151 10.6341 6.97656 10.6758C7.14323 10.7174 7.36458 10.7383 7.64062 10.7383Z" fill="#1B40CC"/>
</g>
<defs>
<filter id="filter0_d_107_791" x="0" y="0.0117188" width="30" height="18.9766" filterUnits="userSpaceOnUse" color-interpolation-filters="sRGB">
<feFlood flood-opacity="0" result="BackgroundImageFix"/>
<feColorMatrix in="SourceAlpha" type="matrix" values="0 0 0 0 0 0 0 0 0 0 0 0 0 0 0 0 0 0 127 0" result="hardAlpha"/>
<feOffset dy="2"/>
<feGaussianBlur stdDeviation="2"/>
<feColorMatrix type="matrix" values="0 0 0 0 0 0 0 0 0 0 0 0 0 0 0 0 0 0 0.15 0"/>
<feBlend mode="normal" in2="BackgroundImageFix" result="effect1_dropShadow_107_791"/>
<feBlend mode="normal" in="SourceGraphic" in2="effect1_dropShadow_107_791" result="shape"/>
</filter>
</defs>
</svg>
