<svg width="14" height="13" viewBox="0 0 14 13" fill="none" xmlns="http://www.w3.org/2000/svg">
<path d="M9.08354 11.9359H4.61894M3.27726 9.91673C2.44541 9.91673 2.02888 9.91673 1.71085 9.77013C1.43082 9.64111 1.20332 9.43462 1.06064 9.18134C0.9706 9.02149 0.930545 8.83438 0.912724 8.57061M3.27726 9.91673H10.4252M3.27726 9.91673H2.08871C1.67197 9.91673 1.46381 9.91646 1.30464 9.84309C1.16463 9.77861 1.05088 9.67638 0.979537 9.54977C0.898438 9.40581 0.898438 9.21681 0.898438 8.83984V8.57061H0.912724M0.912724 8.57061C0.898437 8.35921 0.898438 8.09846 0.898438 7.76308V3.32091C0.898438 2.56701 0.898437 2.18978 1.06064 1.90184C1.20332 1.64854 1.43082 1.44276 1.71085 1.31371C2.02919 1.16699 2.44623 1.16699 3.27971 1.16699H10.4231C11.2565 1.16699 11.6727 1.16699 11.991 1.31371C12.271 1.44276 12.4993 1.64854 12.642 1.90184C12.804 2.1895 12.804 2.56627 12.804 3.31869V7.76503C12.804 8.09947 12.804 8.35954 12.7898 8.57061M0.912724 8.57061H12.7898M10.4252 9.91673C11.2571 9.91673 11.673 9.91673 11.991 9.77013C12.271 9.64111 12.4993 9.43462 12.642 9.18134C12.732 9.02156 12.772 8.83438 12.7898 8.57061M10.4252 9.91673H11.6132C12.03 9.91673 12.2388 9.91646 12.3979 9.84309C12.5379 9.77861 12.6514 9.67638 12.7226 9.54977C12.8037 9.40581 12.804 9.21681 12.804 8.83984V8.57061H12.7898" stroke="white" stroke-width="1.3" stroke-linecap="round" stroke-linejoin="round"/>
</svg>
