<svg width="14" height="16" viewBox="0 0 14 16" fill="none" xmlns="http://www.w3.org/2000/svg">
<path fill-rule="evenodd" clip-rule="evenodd" d="M6.84565 3.65976C6.96026 3.55747 7.1157 3.5 7.27778 3.5H12.1667C13.1792 3.5 14 4.23263 14 5.13636V13.8636C14 14.7674 13.1792 15.5 12.1667 15.5H4.83333C3.82081 15.5 3 14.7674 3 13.8636V7.31818C3 7.17352 3.06439 7.03478 3.17899 6.93249L6.84565 3.65976ZM12.1667 4.59091H7.88889V7.31818C7.88889 7.61943 7.61529 7.86364 7.27778 7.86364H4.22222V13.8636C4.22222 14.1649 4.49583 14.4091 4.83333 14.4091H12.1667C12.5042 14.4091 12.7778 14.1649 12.7778 13.8636V5.13636C12.7778 4.83512 12.5042 4.59091 12.1667 4.59091ZM5.08646 6.77273H6.66667V5.3623L5.08646 6.77273ZM5.44444 10.0455C5.44444 9.7442 5.71805 9.5 6.05556 9.5H10.9444C11.282 9.5 11.5556 9.7442 11.5556 10.0455C11.5556 10.3467 11.282 10.5909 10.9444 10.5909H6.05556C5.71805 10.5909 5.44444 10.3467 5.44444 10.0455ZM5.44444 12.2273C5.44444 11.926 5.71805 11.6818 6.05556 11.6818H10.9444C11.282 11.6818 11.5556 11.926 11.5556 12.2273C11.5556 12.5285 11.282 12.7727 10.9444 12.7727H6.05556C5.71805 12.7727 5.44444 12.5285 5.44444 12.2273Z" fill="white"/>
<path fill-rule="evenodd" clip-rule="evenodd" d="M4.27778 0.5C4.1157 0.5 3.96026 0.557469 3.84565 0.659758L0.178988 3.93249C0.0643867 4.03478 0 4.17352 0 4.31818V10.8636C0 11.7674 0.820814 12.5 1.83333 12.5H4V11.4091H1.83333C1.49583 11.4091 1.22222 11.1649 1.22222 10.8636V4.86364H4.27778C4.61529 4.86364 4.88889 4.61943 4.88889 4.31818V1.59091H9.16667C9.50418 1.59091 9.77778 1.83512 9.77778 2.13636V4.5H11V2.13636C11 1.23263 10.1792 0.5 9.16667 0.5H4.27778ZM3.66667 3.77273H2.08646L3.66667 2.3623V3.77273Z" fill="white"/>
</svg>
