<svg width="15" height="16" viewBox="0 0 15 16" fill="none" xmlns="http://www.w3.org/2000/svg">
<path d="M6.7461 1.25976C6.74482 0.845774 7.07937 0.509113 7.49337 0.507816C7.90738 0.506519 8.24403 0.841074 8.2453 1.25506L6.7461 1.25976Z" fill="white"/>
<path d="M9.23113 6.7186L8.26497 7.69076L8.2448 1.25488L6.7456 1.25958L6.76576 7.69548L5.79363 6.72939C5.49997 6.43756 5.02534 6.43903 4.73352 6.73269C4.4417 7.02631 4.44319 7.50096 4.73685 7.79278L4.73873 7.79465L4.73947 7.7954L7.52443 10.5629L10.2842 7.78573L10.2884 7.78154L10.289 7.78094L10.2896 7.78034L10.294 7.77591L9.23113 6.7186Z" fill="white"/>
<path d="M10.2939 7.77509C10.5857 7.4814 10.5842 7.00675 10.2906 6.71493C9.99686 6.42314 9.52221 6.42465 9.23047 6.7183L10.2939 7.77509Z" fill="white"/>
<path d="M1.4992 7.99645C1.4992 7.16844 2.17042 6.49725 2.99841 6.49725C3.4124 6.49725 3.74801 6.16164 3.74801 5.74765C3.74801 5.33365 3.4124 4.99805 2.99841 4.99805C1.34243 4.99805 0 6.34048 0 7.99645V12.4941C0 14.15 1.34243 15.4925 2.99841 15.4925H11.244C13.314 15.4925 14.992 13.8144 14.992 11.7445V7.99645C14.992 6.34048 13.6496 4.99805 11.9936 4.99805C11.5796 4.99805 11.244 5.33365 11.244 5.74765C11.244 6.16164 11.5796 6.49725 11.9936 6.49725C12.8216 6.49725 13.4928 7.16844 13.4928 7.99645V11.7445C13.4928 12.9865 12.486 13.9933 11.244 13.9933H2.99841C2.17042 13.9933 1.4992 13.3221 1.4992 12.4941V7.99645Z" fill="white"/>
</svg>
