<svg width="33" height="33" viewBox="0 0 33 33" fill="none" xmlns="http://www.w3.org/2000/svg">
<path d="M24.6286 6.54856L6.62861 13.7486C6.24895 13.9004 6 14.2681 6 14.677V25.9087C6 26.2734 6.19853 26.6092 6.51808 26.7849L15.5181 31.7349C15.8182 31.9 16.1818 31.9 16.4819 31.7349L25.4819 26.7849C25.8015 26.6092 26 26.2734 26 25.9087V7.47703C26 6.76957 25.2855 6.28581 24.6286 6.54856Z" fill="white"/>
<path d="M25.3786 4.7542L16.3786 8.43601C15.7207 8.70515 15 8.22127 15 7.51047V6.17135C15 5.76529 15.2455 5.39955 15.6214 5.2458L24.6214 1.56399C25.2793 1.29485 26 1.77873 26 2.48953V3.82865C26 4.23471 25.7545 4.60045 25.3786 4.7542Z" fill="white"/>
</svg>
