<svg width="14" height="12" viewBox="0 0 14 12" fill="none" xmlns="http://www.w3.org/2000/svg">
<path d="M2.60397 5.57227C2.58254 5.72226 2.58254 5.85083 2.58254 6.00082H1.29688C1.29688 5.85083 1.29688 5.72226 1.3183 5.57227H2.60397Z" fill="white"/>
<path d="M7.6205 3H6.97767C6.80624 3 6.65625 3.14999 6.65625 3.32142V6.12845C6.65625 6.21417 6.69911 6.29988 6.74196 6.36416L8.54189 8.16409C8.67046 8.29266 8.86331 8.29266 8.99188 8.16409L9.44186 7.71411C9.57043 7.58554 9.57043 7.39269 9.44186 7.26413L7.94192 5.74275V3.32142C7.94192 3.14999 7.79192 3 7.6205 3Z" fill="white"/>
<path d="M7.29391 0C4.1226 0 1.52984 2.46419 1.31556 5.57122C1.31556 5.6355 1.29413 5.72122 1.29413 5.7855H0.329885C0.0513239 5.7855 -0.0986707 6.10692 0.0727515 6.29977L1.67983 8.24969C1.8084 8.39969 2.04411 8.39969 2.17267 8.24969L3.77976 6.29977C3.95118 6.08549 3.80118 5.7855 3.52262 5.7855H2.5798C2.5798 5.72122 2.5798 5.6355 2.5798 5.57122C2.79408 3.17131 4.82972 1.28567 7.27248 1.28567C10.0581 1.28567 12.2652 3.70701 11.9652 6.53547C11.7509 8.57111 9.82239 10.4996 7.76532 10.6925C6.24395 10.8425 4.80829 10.2853 3.80118 9.19252C3.67262 9.04252 3.5012 8.95681 3.32977 9.17109L2.81551 9.79249C2.70837 9.92106 2.79408 10.0068 2.90122 10.1139C4.05832 11.3353 5.64397 12.021 7.3582 11.9996C10.4438 11.9567 13.0366 9.51393 13.2508 6.42833C13.5294 2.93561 10.7438 0 7.29391 0Z" fill="white"/>
</svg>
