<svg width="20" height="11" viewBox="0 0 20 11" fill="none" xmlns="http://www.w3.org/2000/svg">
<path fill-rule="evenodd" clip-rule="evenodd" d="M12.2474 0.131551C15.5171 0.613797 18.1833 2.33349 19.7184 3.86867C20.093 4.24328 20.093 4.85064 19.7184 5.22525C19.3438 5.59985 18.7365 5.59985 18.3619 5.22524C17.0629 3.92625 14.7584 2.44114 11.9675 2.02951C9.22308 1.62474 5.93148 2.24396 2.54266 5.2631C2.1471 5.61551 1.54075 5.58053 1.18834 5.18497C0.835928 4.78941 0.870908 4.18306 1.26647 3.83064C5.07199 0.44026 8.93111 -0.357563 12.2474 0.131551Z" fill="#789FEF"/>
<path fill-rule="evenodd" clip-rule="evenodd" d="M11.6045 3.85619C13.906 4.18305 15.8051 5.37694 16.893 6.49403C17.2626 6.87357 17.2546 7.48087 16.8751 7.85049C16.4955 8.22011 15.8882 8.21207 15.5186 7.83254C14.6883 6.97991 13.1646 6.01549 11.3348 5.75562C9.55138 5.50234 7.41733 5.90722 5.25262 7.87331C4.86045 8.22949 4.25379 8.20032 3.89761 7.80816C3.54142 7.41599 3.57059 6.80933 3.96276 6.45315C6.55066 4.1027 9.25655 3.52274 11.6045 3.85619Z" fill="#1B40CC"/>
<path fill-rule="evenodd" clip-rule="evenodd" d="M11.0476 7.95089C12.3155 8.11223 13.3838 8.72815 14.012 9.36844C14.383 9.74659 14.3773 10.3539 13.9991 10.725C13.621 11.096 13.0137 11.0902 12.6426 10.7121C12.3045 10.3675 11.6287 9.95879 10.8055 9.85403C10.0226 9.75441 9.07885 9.9244 8.11441 10.7638C7.71479 11.1116 7.10888 11.0696 6.76108 10.67C6.41327 10.2704 6.45527 9.66446 6.85489 9.31666C8.24495 8.10683 9.73937 7.7844 11.0476 7.95089Z" fill="#1B40CC"/>
</svg>
